<svg xmlns="http://www.w3.org/2000/svg" aria-hidden="true"
    style="position:absolute;width:0;height:0;overflow:hidden">
    <defs>
        <symbol id="icon-linkedin" viewBox="0 0 32 32">
            <path
                d="M8.56 30.933h-6.2V11h6.2v19.933zm-3.133-22.6c-1.933 0-3.533-1.667-3.533-3.667 0-1.933 1.6-3.533 3.533-3.533 2 0 3.6 1.6 3.6 3.533 0 2-1.6 3.667-3.6 3.667zm26.267 22.6h-6.133v-9.667c0-2.333-.067-5.267-3.267-5.267s-3.667 2.467-3.667 5.067v9.867h-6.2V11h5.933v2.733h.067c.867-1.533 2.867-3.2 5.867-3.2 6.267 0 7.467 4.133 7.467 9.467v10.933h-.067z" />
        </symbol>
        <symbol id="icon-logo" viewBox="0 0 170 32">
            <path
                d="M40.846 8.601c.431.017.996.033 1.692.05s1.394.025 2.091.025c.796 0 1.568-.008 2.315-.025s1.278-.025 1.593-.025c2.057 0 3.592.365 4.604 1.095 1.029.73 1.543 1.668 1.543 2.812 0 .581-.174 1.17-.523 1.767s-.888 1.128-1.618 1.593c-.73.465-1.676.805-2.837 1.02v.05c1.56.116 2.796.398 3.708.846s1.568.987 1.966 1.618c.398.631.597 1.286.597 1.966 0 1.045-.274 1.925-.821 2.638s-1.336 1.261-2.364 1.643c-1.029.365-2.257.548-3.684.548-.398 0-.971-.008-1.717-.025a62.787 62.787 0 0 0-2.713-.05c-.73 0-1.444.008-2.14.025-.697 0-1.261.017-1.692.05v-.498c.531-.033.929-.1 1.195-.199s.44-.299.523-.597c.1-.299.149-.747.149-1.344V11.239c0-.614-.05-1.062-.149-1.344a.83.83 0 0 0-.548-.597c-.266-.116-.655-.182-1.17-.199v-.498zm7.367.498c-.647 0-1.07.141-1.269.423-.182.282-.274.854-.274 1.717v12.345c0 .581.041 1.02.124 1.319.1.299.266.498.498.597.249.1.614.149 1.095.149 1.195 0 2.066-.373 2.613-1.12.564-.763.846-1.842.846-3.236 0-1.278-.324-2.265-.971-2.962-.63-.697-1.684-1.045-3.161-1.045h-2.116V16.863h2.14c.78 0 1.377-.183 1.792-.548.415-.382.705-.879.871-1.493.166-.63.249-1.303.249-2.016 0-1.228-.191-2.149-.572-2.763-.382-.63-1.004-.946-1.867-.946zm15.528 3.907c1.46 0 2.605.431 3.435 1.294s1.244 2.273 1.244 4.231h-8.188l-.05-.473h5.102c.017-.813-.033-1.56-.149-2.24-.116-.697-.299-1.253-.548-1.668s-.581-.622-.996-.622c-.581 0-1.078.365-1.493 1.095-.398.73-.639 1.941-.722 3.634l.075.149-.05.622v.672c0 1.145.158 2.074.473 2.788.332.713.747 1.236 1.244 1.568.498.315 1.004.473 1.518.473.348 0 .705-.05 1.07-.149a3.796 3.796 0 0 0 1.145-.597c.382-.299.738-.713 1.07-1.244l.448.149c-.199.631-.514 1.244-.946 1.842s-.979 1.087-1.643 1.468c-.664.382-1.46.572-2.389.572-1.128 0-2.124-.241-2.987-.722s-1.543-1.211-2.041-2.19c-.481-.979-.722-2.223-.722-3.733 0-1.543.257-2.829.772-3.858.531-1.029 1.253-1.792 2.165-2.29.929-.514 1.983-.772 3.161-.772zm9.555 13.39c-.747 0-1.369-.141-1.867-.423s-.863-.655-1.095-1.12a3.563 3.563 0 0 1-.348-1.568c0-.713.158-1.294.473-1.742.332-.448.755-.813 1.269-1.095s1.054-.514 1.618-.697c.581-.183 1.128-.357 1.643-.523.531-.183.954-.39 1.269-.622.332-.249.498-.564.498-.946v-1.941c0-.431-.075-.813-.224-1.145a1.545 1.545 0 0 0-.647-.796c-.282-.182-.655-.274-1.12-.274-.332 0-.664.05-.996.149a1.718 1.718 0 0 0-.821.448c.465.166.821.423 1.07.772.265.332.398.713.398 1.145 0 .564-.199 1.012-.597 1.344a2.017 2.017 0 0 1-1.369.498c-.597 0-1.054-.183-1.369-.548-.299-.382-.448-.838-.448-1.369 0-.481.116-.879.348-1.195.249-.315.589-.614 1.02-.896.465-.265 1.02-.473 1.668-.622.664-.149 1.377-.224 2.14-.224s1.452.083 2.066.249a3.199 3.199 0 0 1 1.543.846c.382.382.63.854.747 1.419.116.548.174 1.244.174 2.091v6.77c0 .415.041.705.124.871.083.149.224.224.423.224.149 0 .29-.041.423-.124.149-.083.307-.183.473-.299l.249.423a3.824 3.824 0 0 1-1.22.697 4.797 4.797 0 0 1-1.518.224c-.614 0-1.103-.083-1.468-.249-.365-.183-.631-.423-.796-.722a2.314 2.314 0 0 1-.224-1.045c-.398.631-.879 1.128-1.444 1.493-.564.348-1.253.523-2.066.523zm1.767-1.592a1.8 1.8 0 0 0 .896-.224c.282-.166.548-.431.796-.796v-5.102c-.149.249-.357.473-.622.672s-.548.407-.846.622a8.081 8.081 0 0 0-.871.672c-.266.249-.481.556-.647.921s-.249.805-.249 1.319c0 .647.141 1.128.423 1.444s.655.473 1.12.473zm20.075-11.723v10.428c0 .747.116 1.302.348 1.668.232.348.647.523 1.244.523v.523a15.938 15.938 0 0 0-1.543-.075c-.697 0-1.344.025-1.941.075s-1.162.141-1.692.274v-2.24c-.398.83-.954 1.427-1.668 1.792-.697.348-1.477.523-2.339.523-.697 0-1.261-.091-1.692-.274s-.772-.415-1.02-.697c-.282-.315-.481-.73-.597-1.244s-.174-1.178-.174-1.991v-6.297c0-.747-.116-1.294-.348-1.643-.216-.365-.631-.548-1.244-.548v-.523c.531.05 1.045.075 1.543.075.697 0 1.344-.025 1.941-.075a14.976 14.976 0 0 0 1.692-.274v10.304c0 .415.033.78.1 1.095.083.315.232.564.448.747.216.166.531.249.946.249.448 0 .846-.124 1.195-.373.365-.249.655-.589.871-1.02.232-.448.348-.946.348-1.493v-6.521c0-.747-.116-1.294-.348-1.643-.216-.365-.63-.548-1.244-.548v-.523c.531.05 1.045.075 1.543.075.697 0 1.344-.025 1.941-.075a14.976 14.976 0 0 0 1.692-.274zm7.752-3.808v4.082h2.937v.498h-2.937v10.055c0 .498.091.855.274 1.07.182.199.456.299.821.299.299 0 .597-.108.896-.324.299-.232.564-.622.796-1.17l.423.224c-.266.747-.672 1.361-1.22 1.842-.532.481-1.261.722-2.19.722-.548 0-1.029-.075-1.444-.224a2.543 2.543 0 0 1-1.045-.622 2.66 2.66 0 0 1-.722-1.344c-.116-.548-.174-1.253-.174-2.116v-8.412h-2.091v-.498h2.091V10.07c.697 0 1.335-.058 1.916-.174a6.31 6.31 0 0 0 1.668-.622zm15.867 4.082v.498c-.315.083-.613.282-.896.597-.282.299-.556.813-.821 1.543l-3.509 9.856-.921 1.742-5.426-12.32c-.282-.647-.564-1.037-.846-1.17-.265-.149-.498-.224-.697-.224v-.523c.548.05 1.112.091 1.692.124.597.017 1.17.025 1.717.025.681 0 1.303-.017 1.867-.05s1.095-.066 1.593-.1v.523a5.73 5.73 0 0 0-.946.075c-.282.033-.481.149-.597.348-.1.182-.05.506.149.971l3.136 7.566-.224.149 1.842-5.152c.316-.896.448-1.626.398-2.19-.05-.581-.232-1.012-.548-1.294-.315-.299-.747-.465-1.294-.498v-.498l.821.05c.283 0 .564.008.846.025h.747a29.227 29.227 0 0 0 1.916-.075zm-5.226 12.494-.946 2.663c-.165.415-.34.763-.523 1.045a2.54 2.54 0 0 1-.572.722c-.232.199-.531.348-.896.448a4.19 4.19 0 0 1-1.269.174 4.22 4.22 0 0 1-1.244-.199c-.414-.133-.763-.348-1.045-.647s-.423-.68-.423-1.145c0-.514.183-.929.548-1.244.365-.299.846-.448 1.444-.448.548 0 .996.133 1.344.398s.523.655.523 1.17c0 .332-.108.647-.324.946-.199.299-.506.523-.921.672.084.017.183.025.299.025h.274c.498 0 .938-.158 1.319-.473s.697-.813.946-1.493l.871-2.564.597-.05zm15.221-12.843c.697 0 1.26.091 1.692.274.448.166.796.398 1.045.697.265.315.456.722.572 1.22.132.498.199 1.17.199 2.016v6.695c0 .697.116 1.17.348 1.419.249.249.663.373 1.244.373v.523a58.91 58.91 0 0 0-1.419-.05 35.744 35.744 0 0 0-3.734 0c-.597.017-1.054.033-1.369.05V25.7c.498 0 .846-.124 1.045-.373s.299-.722.299-1.419v-7.74a4.07 4.07 0 0 0-.124-1.07c-.084-.315-.233-.556-.448-.722-.216-.182-.54-.274-.971-.274a2.23 2.23 0 0 0-1.244.373 2.78 2.78 0 0 0-.896 1.045 3.234 3.234 0 0 0-.324 1.468v6.919c0 .697.1 1.17.299 1.419.215.249.564.373 1.045.373v.523a53.173 53.173 0 0 0-1.319-.05 30.297 30.297 0 0 0-1.767-.05c-.631 0-1.278.017-1.941.05-.664.017-1.162.033-1.493.05v-.523c.58 0 .987-.124 1.22-.373.249-.249.373-.722.373-1.419v-7.84c0-.747-.116-1.294-.348-1.643-.216-.365-.631-.548-1.244-.548v-.523c.531.05 1.045.075 1.543.075.697 0 1.344-.025 1.941-.075a15.013 15.013 0 0 0 1.692-.274v2.24c.414-.846.979-1.444 1.692-1.792s1.509-.523 2.389-.523zm12.451 0c1.46 0 2.605.431 3.435 1.294s1.244 2.273 1.244 4.231h-8.188l-.05-.473h5.102c.017-.813-.033-1.56-.149-2.24-.116-.697-.299-1.253-.548-1.668s-.58-.622-.996-.622c-.58 0-1.078.365-1.493 1.095-.398.73-.639 1.941-.722 3.634l.075.149-.05.622v.672c0 1.145.157 2.074.473 2.788.332.713.747 1.236 1.244 1.568.498.315 1.004.473 1.518.473.348 0 .705-.05 1.07-.149a3.796 3.796 0 0 0 1.145-.597c.381-.299.739-.713 1.07-1.244l.448.149c-.199.631-.515 1.244-.946 1.842s-.979 1.087-1.643 1.468c-.664.382-1.46.572-2.389.572-1.128 0-2.124-.241-2.987-.722s-1.543-1.211-2.041-2.19c-.481-.979-.722-2.223-.722-3.733 0-1.543.257-2.829.772-3.858.531-1.029 1.252-1.792 2.165-2.29.929-.514 1.983-.772 3.161-.772zm11.048 0c.697 0 1.303.091 1.817.274.532.166.913.332 1.145.498.564.382.913.133 1.045-.747h.523a38.479 38.479 0 0 0-.075 1.717c-.016.664-.025 1.551-.025 2.663h-.523c-.083-.614-.24-1.22-.473-1.817s-.572-1.087-1.02-1.468c-.431-.382-.996-.572-1.692-.572-.481 0-.887.141-1.22.423-.332.265-.498.655-.498 1.17 0 .498.149.937.448 1.319a6.55 6.55 0 0 0 1.145 1.07c.482.332.98.689 1.493 1.07.548.415 1.045.83 1.493 1.244.448.398.805.838 1.07 1.319s.398 1.054.398 1.717c0 .747-.215 1.402-.647 1.966-.431.548-1.004.971-1.717 1.269-.697.299-1.476.448-2.34.448-.498 0-.946-.05-1.344-.149a4.7 4.7 0 0 1-.996-.373 16.9 16.9 0 0 0-.622-.274 4.61 4.61 0 0 0-.523-.249c-.165-.05-.315.008-.448.174-.116.166-.207.398-.274.697h-.523c.034-.531.059-1.178.075-1.941s.025-1.775.025-3.036h.523c.1.896.283 1.692.548 2.389.266.68.622 1.22 1.07 1.618.465.382 1.045.572 1.742.572.283 0 .556-.058.821-.174s.482-.307.647-.572c.183-.265.274-.606.274-1.02 0-.73-.24-1.336-.722-1.817-.464-.481-1.061-1.004-1.792-1.568a70.957 70.957 0 0 1-1.518-1.269 6.409 6.409 0 0 1-1.145-1.394 3.4 3.4 0 0 1-.448-1.742c0-.747.199-1.377.597-1.892s.921-.896 1.568-1.145a5.654 5.654 0 0 1 2.116-.398zm11.497 0c.697 0 1.302.091 1.817.274.531.166.913.332 1.145.498.564.382.913.133 1.045-.747h.523a38.479 38.479 0 0 0-.075 1.717c-.017.664-.025 1.551-.025 2.663h-.523c-.083-.614-.241-1.22-.473-1.817s-.572-1.087-1.02-1.468c-.431-.382-.996-.572-1.692-.572-.481 0-.888.141-1.22.423-.332.265-.498.655-.498 1.17 0 .498.149.937.448 1.319.299.365.68.722 1.145 1.07.481.332.979.689 1.493 1.07.548.415 1.045.83 1.493 1.244.448.398.804.838 1.07 1.319s.398 1.054.398 1.717c0 .747-.216 1.402-.647 1.966-.431.548-1.004.971-1.717 1.269-.697.299-1.476.448-2.34.448-.498 0-.946-.05-1.344-.149a4.68 4.68 0 0 1-.996-.373c-.216-.1-.423-.191-.622-.274a4.61 4.61 0 0 0-.523-.249c-.166-.05-.316.008-.448.174-.116.166-.207.398-.274.697h-.523c.033-.531.058-1.178.075-1.941s.025-1.775.025-3.036h.523c.1.896.282 1.692.548 2.389.266.68.622 1.22 1.07 1.618.465.382 1.045.572 1.742.572.282 0 .556-.058.821-.174s.481-.307.647-.572c.182-.265.274-.606.274-1.02 0-.73-.241-1.336-.722-1.817-.465-.481-1.062-1.004-1.792-1.568a68.565 68.565 0 0 1-1.518-1.269 6.38 6.38 0 0 1-1.145-1.394 3.4 3.4 0 0 1-.448-1.742c0-.747.199-1.377.597-1.892s.921-.896 1.568-1.145a5.654 5.654 0 0 1 2.116-.398z" />
            <path fill="none" stroke="#7a9ca5" stroke-width="2.222"
                d="M28.222 16.889c0 7.487-6.069 13.556-13.556 13.556S1.11 24.376 1.11 16.889c0-7.487 6.069-13.556 13.556-13.556s13.556 6.069 13.556 13.556z"
                style="stroke:var(--color1, #7a9ca5)" />
            <path fill="none" stroke="#7a9ca5" stroke-linecap="round" stroke-linejoin="round"
                stroke-width="2.222"
                d="M22.014 13.053c.112 1.16-.308 2.322-1.167 3.233l-5.139 5.464-7.079.681-.596-6.191 5.148-5.457c.859-.91 2.086-1.493 3.412-1.621l4.638.111.783 3.78zM17.778 12.889 4.445 26.222M18.667 18.222h-6.222M17.778 12.889h-6.222"
                style="stroke:var(--color1, #7a9ca5)" />
        </symbol>
        <symbol id="icon-icon" viewBox="0 0 32 32">
            <path fill="none" stroke="#7a9ca5" stroke-linecap="round" stroke-linejoin="round"
                stroke-width="2.222" d="M17.778 12.889h-6.222" style="stroke:var(--color1, #7a9ca5)" />
        </symbol>
        <symbol id="icon-calendar" viewBox="0 0 30 32">
            <path fill="none" stroke="#fff" stroke-linecap="round" stroke-linejoin="round"
                stroke-width="3.556"
                d="M24.69 5.333H6.023A2.667 2.667 0 0 0 3.356 8v18.667a2.667 2.667 0 0 0 2.667 2.667v0H24.69a2.667 2.667 0 0 0 2.667-2.667v0V8a2.667 2.667 0 0 0-2.667-2.667v0zm-4-2.666V8M10.023 2.667V8m-6.667 5.333h24"
                style="stroke:var(--color2, #fff)" />
        </symbol>
        <symbol id="icon-twitter" viewBox="0 0 42 32">
            <path
                d="M37.492 8v1.078C37.492 19.766 29.418 32 14.573 32c-4.615 0-8.847-1.307-12.384-3.616.615.076 1.231.155 1.92.155a16.172 16.172 0 0 0 10.036-3.487l-.034.026a8.043 8.043 0 0 1-7.521-5.563l-.016-.057c.539.079.999.155 1.538.155.692 0 1.462-.155 2.078-.308-3.714-.782-6.462-4.031-6.462-7.921v-.079c1.076.615 2.383.923 3.692.999-2.19-1.439-3.616-3.884-3.616-6.663v-.032.002c0-1.538.384-2.922 1.076-4.076 4.044 4.867 9.961 8.058 16.629 8.46l.065.003a7.53 7.53 0 0 1-.231-1.846v-.005A8.074 8.074 0 0 1 29.417.073c2.309 0 4.384.923 5.922 2.54A17.015 17.015 0 0 0 40.497.571l-.077.043a7.94 7.94 0 0 1-3.503 4.443l-.036.02a15.126 15.126 0 0 0 4.71-1.269l-.095.039a17.29 17.29 0 0 1-3.954 4.12L37.496 8z" />
        </symbol>
        <symbol id="icon-facebook" viewBox="0 0 19 32">
            <path
                d="M16.2 17.882h-4.41v13.176H5.908V17.882H1.084V12.47h4.824V8.293c0-4.706 2.824-7.352 7.117-7.352 2.059 0 4.235.412 4.235.412v4.648h-2.411c-2.353 0-3.059 1.412-3.059 2.94v3.529h5.235l-.824 5.412z" />
        </symbol>
        <symbol id="icon-phone" viewBox="0 0 32 32">
            <path fill="none" stroke="#7a9ca5" stroke-linecap="round" stroke-linejoin="round"
                stroke-width="2.783"
                d="M19.392 6.957c2.782.557 4.939 2.714 5.488 5.451l.007.044-5.496-5.496zm0-5.566c5.817.665 10.389 5.232 11.055 10.989l.005.058L19.391 1.391zm9.67 22.15V27.726a2.783 2.783 0 0 1-3.044 2.771l.011.001c-4.515-.503-8.594-2.027-12.111-4.336l.104.064c-3.383-2.172-6.176-4.965-8.283-8.24l-.065-.108c-2.252-3.429-3.777-7.528-4.26-11.94l-.011-.123a2.783 2.783 0 0 1 2.769-3.033H8.373a2.782 2.782 0 0 1 2.753 2.378l.002.015c.177 1.336.504 2.648.974 3.91a2.775 2.775 0 0 1-.626 2.936l-1.767 1.767c2.016 3.502 4.846 6.331 8.24 8.291l.108.057 1.767-1.767a2.774 2.774 0 0 1 1.957-.804c.352 0 .688.065.998.184l-.019-.006c1.262.472 2.574.797 3.91.974a2.787 2.787 0 0 1 2.394 2.755l-.001.073v-.004z"
                style="stroke:var(--color1, #7a9ca5)" />
        </symbol>
        <symbol id="icon-arrow" viewBox="0 0 17 16">
            <path fill="none" d="M4.8877 6L8.8877 10L12.8877 6" stroke="#141414" stroke-width="1.5"
                stroke-linecap="round" stroke-linejoin="round" />
        </symbol>
    </defs>
</svg>