<svg aria-hidden="true" style="position: absolute; width: 0; height: 0; overflow: hidden;" version="1.1"
    xmlns="http://www.w3.org/2000/svg" xmlns:xlink="http://www.w3.org/1999/xlink">
    <defs>
        <symbol id="icon-preps" viewBox="0 0 27 32">
            <path fill="#7a9ca5" style="fill: var(--color1, #7a9ca5)"
                d="M5.209 12.963c0.345 0 0.625-0.28 0.625-0.625s-0.28-0.625-0.625-0.625c-0.345 0-0.625 0.28-0.625 0.625s0.28 0.625 0.625 0.625z">
            </path>
            <path fill="#7a9ca5" style="fill: var(--color1, #7a9ca5)"
                d="M26.335 11.683c-0.393-0.452-0.975-0.71-1.595-0.71h-5.053v-1.070c0-1.566-1.275-2.841-2.841-2.841h-0.489v-0.080c0-1.12-0.888-2.035-1.996-2.081v-1.065c0.464-0.109 0.867-0.265 1.206-0.47 0.63-0.382 0.902-0.844 1.020-1.163 0.263-0.714-0.014-1.533-0.63-1.863-0.175-0.093-0.361-0.141-0.553-0.141-0.418 0-0.81 0.232-1.047 0.612-0.12 0.078-0.578 0.315-1.745 0.315h-2.908c-1.477 0-2.395 1.010-2.395 2.636 0 0.797 0.574 1.446 1.28 1.446 0.629 0 1.154-0.515 1.26-1.191h1.397v0.885c-1.109 0.046-1.996 0.962-1.996 2.081v0.080h-0.49c-1.566 0-2.841 1.275-2.841 2.841v0.042h-1.831c-0.812 0-1.473 0.661-1.473 1.473v2.784c-0.444 0.38-0.726 0.943-0.726 1.571v0.918c-0.842 0.601-1.415 1.562-1.489 2.663-0.031 0.483-0.054 0.996-0.065 1.521-0.006 0.266 0.205 0.486 0.471 0.493s0.486-0.205 0.492-0.471c0.011-0.512 0.033-1.009 0.064-1.48 0.064-0.973 0.664-1.794 1.497-2.183 0.006-0.002 0.012-0.006 0.017-0.008 0.333-0.151 0.702-0.233 1.068-0.233h2.526c0.367 0 0.734 0.081 1.068 0.233 0.006 0.002 0.012 0.006 0.017 0.008 0.843 0.391 1.436 1.255 1.497 2.183 0.049 0.731 0.073 1.483 0.073 2.233 0 0.355-0.010 0.709-0.017 1.064-0.001 0.012-0.001 0.025-0.001 0.038-0.004 0.125-0.353 0.471-0.426 0.601-0.12 0.213-0.217 0.437-0.288 0.67-0.163 0.53-0.197 1.088-0.207 1.639-0.014 0.825 0.068 1.653 0.25 2.458 0.001 0.004 0.001 0.007 0.002 0.011-0.304 0.837-1.087 1.391-1.984 1.391h-2.494c-0.992 0-1.861-0.707-2.068-1.682-0.328-1.546-0.524-3.242-0.584-5.040-0.009-0.266-0.233-0.475-0.497-0.465-0.266 0.009-0.475 0.231-0.465 0.497 0.062 1.855 0.265 3.607 0.604 5.208 0.3 1.417 1.567 2.446 3.010 2.446h2.495c0.938 0 1.79-0.415 2.36-1.1 0.304 0.81 0.714 1.562 1.221 2.226 0.091 0.119 0.233 0.189 0.383 0.189h9.091c0.15 0 0.292-0.070 0.383-0.189 0.147-0.192 0.285-0.392 0.415-0.598h4.142c0.266 0 0.482-0.215 0.482-0.482v-3.977l1.144-8.262c0.036-0.264-0.148-0.507-0.411-0.543s-0.507 0.147-0.543 0.411l-0.915 6.609h-2.518c-0.033-0.317-0.102-0.629-0.214-0.927-0.343-0.915-1.046-1.636-1.926-2.013l-0.017-0.127-1.2-8.668c-0.004-0.031-0.007-0.062-0.008-0.093 0-0.002 0-0.003 0-0.005-0.009-0.312 0.159-0.593 0.402-0.777 0.196-0.148 0.452-0.223 0.696-0.223h5.319c0.341 0 0.658 0.138 0.868 0.38 0.179 0.206 0.258 0.461 0.222 0.718l-0.443 3.198c-0.036 0.264 0.148 0.507 0.411 0.543s0.507-0.147 0.543-0.411l0.443-3.198c0.074-0.538-0.086-1.065-0.451-1.483zM9.704 3.052c-0.222 0-0.498 0.025-0.658 0.201-0.125 0.138-0.14 0.331-0.14 0.508 0 0.284-0.167 0.482-0.317 0.482s-0.317-0.198-0.317-0.482c0-1.455 0.897-1.672 1.431-1.672h2.908c0.449 0 0.916-0.028 1.362-0.125 0.385-0.083 0.815-0.207 1.097-0.496 0.103-0.106 0.153-0.306 0.333-0.306 0.032 0 0.064 0.009 0.096 0.026 0.17 0.091 0.284 0.402 0.181 0.681-0.083 0.225-0.441 0.86-1.87 1.094-0.004 0.001-0.007 0.001-0.011 0.001-0.393 0.064-0.791 0.087-1.189 0.087l-2.908-0.001zM13.396 3.984v0.914h-1.186v-0.883c0.001 0.021 1.186-0.022 1.186-0.031zM11.334 5.862h2.939c0.617 0 1.12 0.502 1.12 1.12v0.080h-5.178v-0.080c0-0.617 0.502-1.12 1.12-1.12zM3.58 11.42v-0.002c0-0.281 0.228-0.509 0.509-0.509h2.239c0.011 0 0.022 0.001 0.032 0.002 0.002 0 0.004 0.001 0.006 0.001 0.565 0.041 0.471 0.699 0.471 1.094 0 0.48 0 0.959 0 1.439 0 0.099 0 0.198 0 0.298-0.124-0.023-0.251-0.035-0.377-0.035 0 0-2.502 0-2.503 0-0.117 0-0.253 0.034-0.376 0.030-0.036-0.767-0.001-1.547-0.001-2.316zM7.564 16.202c0-0.14-0.957-0.172-1.093-0.172h-2.524c-0.37 0-0.741 0.059-1.092 0.172v-0.43c0-0.596 0.507-1.104 1.104-1.104h2.503c0.362 0 0.712 0.188 0.915 0.488 0.211 0.313 0.188 0.686 0.188 1.046zM21.052 29.595c0.007-0.024 0.013-0.043 0.017-0.054 0.167-0.473 0.317-0.954 0.426-1.444 0.173-0.774 0.257-1.571 0.248-2.364h2.226v4.317c0 0-3.133 0-3.134 0 0.083 0.001 0.174-0.314 0.217-0.454zM20.535 24.091h-2.275c-0.266 0-0.482 0.215-0.482 0.482s0.215 0.482 0.482 0.482h2.487c0.002 0.020 0.003 0.041 0.005 0.062 0.15 1.996-0.313 4.077-1.484 5.721h-8.604c-0.591-0.828-1.018-1.8-1.266-2.85-0.225-0.956-0.296-1.954-0.214-2.933h7.149c0.266 0 0.482-0.215 0.482-0.482s-0.215-0.482-0.482-0.482h-6.938c0.125-0.296 0.305-0.567 0.535-0.801 0.481-0.491 1.168-0.784 1.863-0.784h6.346c0.22 0 0.438 0.028 0.647 0.083 0.772 0.201 1.434 0.752 1.75 1.502zM18.724 11.087c0-0.003-0.575 0.298-0.63 0.341-0.946 0.754-0.702 1.855-0.558 2.895l1.002 7.241c-0.003-0.001-0.006-0.001-0.010-0.001-0.055-0.006-0.11-0.011-0.166-0.014-0.012-0.001-0.024-0.002-0.036-0.002-0.062-0.003-0.125-0.006-0.189-0.006h-6.345c-0.306 0-0.61 0.040-0.906 0.117-0.144 0.038-0.286 0.084-0.423 0.138-0.051 0.020-0.372 0.132-0.373 0.174 0.001-0.107 0.001-0.214 0.001-0.32 0-0.772-0.025-1.544-0.075-2.297-0.036-0.549-0.204-1.090-0.481-1.565-0.126-0.215-0.275-0.418-0.443-0.602-0.087-0.096-0.179-0.186-0.276-0.272-0.036-0.032-0.289-0.195-0.289-0.229v-0.914c0-0.594-0.268-1.184-0.726-1.573v-2.782c0-0.035-0.002-0.069-0.004-0.102-0.001-0.007-0.001-0.014-0.002-0.021-0.047-0.562-0.41-1.036-0.912-1.241v-0.151c0-1.035 0.843-1.878 1.878-1.878h8.084c1.035 0 1.878 0.843 1.878 1.878 0.001 0.001 0.001 1.185 0.001 1.185z">
            </path>
        </symbol>
        <symbol id="icon-flower" viewBox="0 0 31 32">
            <path fill="#7a9ca5" style="fill: var(--color1, #7a9ca5)"
                d="M4.872 25.113c-0.094 0.238-0.322 0.383-0.563 0.383-0.074 0-0.15-0.014-0.223-0.043-2.317-0.92-3.722-2.102-4.066-3.418-0.085-0.324 0.109-0.656 0.433-0.74s0.655 0.109 0.739 0.434c0.238 0.913 1.425 1.836 3.342 2.598 0.31 0.123 0.462 0.476 0.339 0.787zM6.93 18.761c0.114 0.097 0.254 0.145 0.392 0.145 0.171 0 0.341-0.073 0.461-0.213 0.217-0.255 0.186-0.638-0.068-0.856-0.3-0.256-0.594-0.528-0.873-0.808-2.661-2.667-4.055-6.056-3.632-8.758 1.135-0.178 2.392-0.034 3.665 0.392 0.054 0.028 0.113 0.049 0.174 0.060 1.695 0.601 3.411 1.695 4.901 3.188 0.375 0.375 0.732 0.774 1.061 1.184 0.21 0.261 0.591 0.302 0.851 0.092s0.301-0.592 0.092-0.853c-0.356-0.444-0.743-0.874-1.148-1.281-1.53-1.534-3.296-2.683-5.070-3.361-0.043-1.098 0.142-2.099 0.535-2.889 1 0.218 2.035 0.827 2.965 1.751-0.129 0.518-0.233 1.054-0.308 1.603-0.045 0.332 0.186 0.638 0.518 0.683s0.637-0.187 0.682-0.519c0.407-2.973 1.695-5.469 3.477-6.773 1.782 1.304 3.070 3.799 3.477 6.772 0.045 0.332 0.35 0.564 0.682 0.519s0.563-0.352 0.518-0.683c-0.075-0.549-0.179-1.084-0.308-1.601 0.93-0.923 1.966-1.533 2.965-1.751 0.392 0.79 0.578 1.792 0.535 2.889-1.775 0.679-3.54 1.828-5.070 3.361-0.406 0.407-0.792 0.837-1.148 1.281-0.21 0.261-0.169 0.643 0.092 0.853s0.642 0.169 0.852-0.092c0.329-0.41 0.686-0.808 1.061-1.184 1.49-1.493 3.205-2.588 4.9-3.188 0.062-0.011 0.121-0.032 0.175-0.060 1.273-0.425 2.53-0.57 3.665-0.392 0.422 2.702-0.971 6.092-3.632 8.758-0.279 0.28-0.573 0.551-0.873 0.808-0.254 0.217-0.285 0.6-0.069 0.856s0.599 0.286 0.854 0.069c0.325-0.277 0.643-0.571 0.945-0.874 3.076-3.082 4.6-7.113 3.884-10.269-0.051-0.228-0.229-0.405-0.456-0.457-1.224-0.279-2.579-0.219-3.961 0.14-0.013-1.336-0.331-2.553-0.92-3.49-0.124-0.197-0.35-0.306-0.582-0.279-1.216 0.141-2.474 0.748-3.605 1.73-0.782-2.19-2.063-3.956-3.656-4.96-0.197-0.124-0.448-0.124-0.645 0-1.592 1.004-2.874 2.771-3.656 4.96-1.131-0.982-2.387-1.589-3.605-1.73-0.232-0.027-0.457 0.082-0.581 0.279-0.588 0.937-0.905 2.153-0.918 3.49-1.381-0.359-2.737-0.419-3.961-0.14-0.227 0.052-0.404 0.23-0.456 0.457-0.717 3.156 0.808 7.186 3.884 10.269 0.301 0.302 0.619 0.595 0.944 0.873zM6.643 23.506c0.111-0.316-0.056-0.662-0.372-0.773-1.827-0.64-2.918-1.449-2.918-2.164 0-0.462 0.475-0.984 1.338-1.47 0.291-0.164 0.395-0.534 0.231-0.826s-0.533-0.396-0.824-0.231c-1.298 0.731-1.956 1.581-1.956 2.528 0 1.311 1.29 2.454 3.729 3.31 0.066 0.023 0.133 0.034 0.2 0.034 0.25-0.001 0.484-0.158 0.571-0.408zM24.815 22.776c-0.316 0.108-0.486 0.452-0.378 0.77 0.086 0.253 0.321 0.412 0.573 0.412 0.064 0 0.13-0.011 0.195-0.033 2.526-0.859 3.862-2.020 3.862-3.355 0-0.912-0.613-1.737-1.822-2.451-0.288-0.17-0.659-0.074-0.829 0.215s-0.074 0.661 0.214 0.831c0.79 0.466 1.225 0.966 1.225 1.405-0.001 0.724-1.165 1.569-3.040 2.207zM21.609 27.21c0 0.614-0.499 1.115-1.113 1.115-0.335 0-0.606 0.272-0.606 0.607s0.271 0.607 0.606 0.607c1.281 0 2.324-1.044 2.324-2.329 0-0.335-0.271-0.607-0.606-0.607s-0.605 0.272-0.605 0.607zM30.693 21.294c-0.323-0.084-0.655 0.109-0.739 0.434-0.238 0.914-1.424 1.836-3.341 2.598-0.311 0.124-0.463 0.476-0.34 0.788 0.094 0.238 0.322 0.383 0.563 0.383 0.074 0 0.15-0.014 0.223-0.043 2.317-0.921 3.723-2.103 4.067-3.419 0.084-0.324-0.11-0.655-0.434-0.74zM19.934 21.558c0 0.331-0.268 0.599-0.598 0.599-0.335 0-0.605 0.272-0.605 0.607s0.271 0.607 0.605 0.607c0.998 0 1.809-0.813 1.809-1.813 0-0.335-0.271-0.607-0.606-0.607s-0.606 0.272-0.606 0.607zM18.203 17.683h0.158c0.334 0 0.605-0.272 0.605-0.607s-0.271-0.607-0.605-0.607h-0.158c-0.335 0-0.606 0.272-0.606 0.607s0.272 0.607 0.606 0.607zM24.458 24.639c0.555 0.771 0.848 1.681 0.848 2.63 0 2.489-2.020 4.514-4.504 4.514h-10.396c-2.483 0-4.504-2.024-4.504-4.513 0-1.651 0.913-3.162 2.33-3.949-0.198-0.449-0.308-0.947-0.308-1.468 0-1.587 1.018-2.941 2.434-3.44-0.313-0.454-0.496-1.003-0.496-1.596 0-1.551 1.259-2.813 2.807-2.813h5.871c1.548 0 2.807 1.262 2.807 2.813s-1.259 2.813-2.807 2.813h-5.871c-0.377 0-0.736-0.075-1.066-0.21-0.014 0.001-0.028 0.002-0.042 0.002-1.338 0-2.427 1.091-2.427 2.432 0 0.501 0.152 0.969 0.413 1.356 0.020 0.025 0.039 0.052 0.056 0.080 0.442 0.603 1.155 0.996 1.957 0.996h8.086c1.338 0 2.427-1.091 2.427-2.432 0-0.722-0.321-1.404-0.881-1.87-0.257-0.214-0.292-0.597-0.079-0.855s0.596-0.293 0.853-0.079c0.837 0.698 1.318 1.719 1.318 2.803 0 2.010-1.632 3.645-3.638 3.645h-8.086c-1.048 0-1.994-0.447-2.659-1.16-1.085 0.562-1.789 1.694-1.789 2.933 0 1.82 1.477 3.3 3.293 3.3h10.396c1.816 0 3.293-1.481 3.293-3.299 0-0.692-0.214-1.356-0.62-1.92-0.195-0.272-0.134-0.651 0.137-0.847s0.649-0.135 0.845 0.137zM11.073 16.816c0 0.882 0.716 1.6 1.596 1.6h5.871c0.88 0 1.596-0.718 1.596-1.6s-0.716-1.6-1.596-1.6h-5.871c-0.88 0-1.596 0.717-1.596 1.6z">
            </path>
        </symbol>
        <symbol id="icon-head" viewBox="0 0 21 32">
            <path fill="#7a9ca5" style="fill: var(--color1, #7a9ca5)"
                d="M15.776 12.852c-0.449-0.292-1.264-0.465-2.182-0.465s-1.732 0.174-2.181 0.465c-0.223 0.144-0.285 0.441-0.141 0.663s0.441 0.285 0.664 0.141c0.239-0.155 0.844-0.311 1.659-0.311s1.42 0.156 1.659 0.311c0.081 0.052 0.171 0.078 0.261 0.078 0.157 0 0.311-0.077 0.403-0.218 0.144-0.223 0.081-0.52-0.141-0.664z">
            </path>
            <path fill="#7a9ca5" style="fill: var(--color1, #7a9ca5)"
                d="M13.399 19.33c-0.176-0.198-0.48-0.215-0.677-0.038-0.289 0.258-1.014 0.518-1.982 0.518s-1.693-0.261-1.982-0.518c-0.198-0.176-0.501-0.16-0.677 0.038s-0.16 0.501 0.038 0.677c0.534 0.478 1.515 0.763 2.621 0.763s2.087-0.285 2.621-0.763c0.198-0.177 0.215-0.48 0.038-0.677z">
            </path>
            <path fill="#7a9ca5" style="fill: var(--color1, #7a9ca5)"
                d="M9.605 15.101c-0.179-0.196-0.482-0.21-0.677-0.031-0.139 0.126-0.524 0.263-1.042 0.263s-0.904-0.136-1.042-0.263c-0.196-0.179-0.499-0.165-0.677 0.031s-0.165 0.499 0.031 0.677c0.353 0.322 0.984 0.513 1.689 0.513s1.337-0.192 1.689-0.514c0.195-0.178 0.21-0.482 0.031-0.677z">
            </path>
            <path fill="#7a9ca5" style="fill: var(--color1, #7a9ca5)"
                d="M10.066 12.852c-0.449-0.292-1.264-0.465-2.181-0.465s-1.732 0.174-2.181 0.465c-0.222 0.144-0.285 0.441-0.141 0.663 0.092 0.141 0.246 0.218 0.402 0.218 0.089 0 0.18-0.025 0.261-0.078 0.239-0.155 0.844-0.311 1.659-0.311s1.42 0.156 1.659 0.311c0.223 0.144 0.52 0.081 0.663-0.141 0.144-0.221 0.081-0.518-0.141-0.663z">
            </path>
            <path fill="#7a9ca5" style="fill: var(--color1, #7a9ca5)"
                d="M15.314 15.101c-0.179-0.196-0.482-0.21-0.677-0.031-0.139 0.126-0.524 0.263-1.042 0.263s-0.904-0.136-1.042-0.263c-0.195-0.179-0.499-0.165-0.677 0.031s-0.165 0.499 0.031 0.677c0.353 0.322 0.984 0.513 1.689 0.513s1.336-0.192 1.689-0.514c0.196-0.178 0.21-0.482 0.031-0.677z">
            </path>
            <path fill="#7a9ca5" style="fill: var(--color1, #7a9ca5)"
                d="M20.035 28.522c-0.847-0.72-2.002-1.116-3.252-1.116-1.645 0-2.783-0.367-3.262-0.557v-2.175c2.466-0.894 4.384-2.942 5.097-5.489 1.544-0.194 2.744-1.517 2.744-3.11 0-1.473-1.042-2.738-2.442-3.058v-1.062c0.554-1.942 0.52-3.85 0.391-5.115-0.073-0.723-0.184-1.317-0.264-1.688-0.075-0.345-0.123-0.531-0.158-0.639-0.007-0.028-0.017-0.056-0.030-0.083-0.531-1.126-1.476-2.086-2.686-2.805-0.025-0.018-0.051-0.033-0.078-0.046-1.486-0.862-3.361-1.365-5.355-1.365-1.57 0-3.106 0.311-4.44 0.898-0.242 0.107-0.353 0.39-0.246 0.632s0.39 0.353 0.632 0.246c1.214-0.534 2.616-0.817 4.054-0.817 1.591 0 3.091 0.342 4.335 0.941-0.583 0.502-1.277 0.985-2.107 1.466-0.229 0.133-0.307 0.427-0.174 0.656 0.089 0.153 0.25 0.239 0.415 0.239 0.082 0 0.165-0.021 0.24-0.065 1.005-0.583 1.829-1.174 2.51-1.798 0.832 0.545 1.495 1.224 1.916 2.001-0.017 0.027-0.034 0.052-0.051 0.079-0.012 0.017-0.023 0.035-0.035 0.052-1.050 1.53-3.279 2.996-6.504 4.277-0.019 0.007-0.039 0.015-0.058 0.023-0.070 0.028-0.141 0.056-0.211 0.083-3.207 1.239-6.479 1.967-7.631 2.203-0.262-1.062-0.345-2.11-0.335-3.046 0.399-0.080 0.796-0.195 1.184-0.306 0.304-0.088 0.618-0.179 0.922-0.249 0.005-0.001 0.010-0.002 0.015-0.004 1.972-0.522 3.912-1.227 6.293-2.287 0.242-0.108 0.351-0.391 0.243-0.633s-0.391-0.351-0.633-0.243c-2.328 1.037-4.223 1.726-6.14 2.234-0.326 0.076-0.651 0.17-0.965 0.26-0.3 0.087-0.59 0.17-0.873 0.237 0.104-1.34 0.359-2.303 0.411-2.487 0.332-0.689 0.857-1.314 1.562-1.862 0.21-0.162 0.247-0.464 0.085-0.673s-0.464-0.247-0.673-0.085c-0.837 0.65-1.462 1.404-1.858 2.244-0.010 0.022-0.018 0.043-0.025 0.066-0.046 0.151-1.102 3.727-0.036 7.459v1.062c-1.399 0.317-2.442 1.584-2.442 3.056 0 1.593 1.201 2.916 2.744 3.11 0.713 2.547 2.631 4.594 5.097 5.489v2.175c-0.48 0.191-1.618 0.558-3.262 0.558-1.25 0-2.405 0.396-3.252 1.116-0.855 0.726-1.327 1.712-1.327 2.774 0 0.265 0.215 0.48 0.48 0.48h20.287c0.265 0 0.48-0.215 0.48-0.48 0-1.062-0.472-2.048-1.327-2.775zM18.841 18.116c0.052-0.376 0.079-0.756 0.079-1.135v-2.968c0.863 0.292 1.483 1.116 1.483 2.062 0 0.987-0.664 1.825-1.568 2.089 0.002-0.016 0.004-0.033 0.006-0.049zM1.076 16.075c0-0.946 0.62-1.77 1.483-2.062v2.968c0 0.38 0.027 0.759 0.079 1.135 0.002 0.016 0.004 0.033 0.006 0.049-0.904-0.264-1.568-1.102-1.568-2.089zM18.055 5.959c0.011-0.012 0.022-0.025 0.033-0.038 0.030-0.035 0.060-0.069 0.089-0.104 0.006-0.007 0.012-0.014 0.017-0.020 0.218 1.213 0.44 3.345-0.1 5.534-0.955-0.195-3.366-0.727-5.982-1.608 2.741-1.134 4.731-2.394 5.943-3.765zM3.634 18.27c-0.001-0.005-0.002-0.011-0.003-0.015-0.076-0.42-0.112-0.847-0.112-1.274v-4.697c0.004-0.001 0.009-0.002 0.014-0.003 0.743-0.148 1.481-0.321 2.216-0.505 0.774-0.194 1.544-0.403 2.309-0.631 0.501-0.149 1.001-0.306 1.496-0.472 0.009-0.003 0.018-0.006 0.027-0.009h2.318c2.675 0.894 5.131 1.431 6.062 1.619v4.697c0 0.426-0.038 0.854-0.113 1.274-0.001 0.005-0.002 0.010-0.002 0.015-0.491 2.715-2.505 4.906-5.121 5.655-0.004 0.001-0.009 0.002-0.013 0.004-0.64 0.18-1.306 0.274-1.972 0.274-0.664 0-1.335-0.089-1.973-0.274-0.003-0.001-0.006-0.002-0.009-0.002-2.618-0.748-4.633-2.94-5.124-5.656zM1.121 30.817c0.114-0.592 0.44-1.136 0.943-1.564 0.674-0.573 1.608-0.888 2.631-0.888 2.469 0 3.907-0.749 3.967-0.781 0.157-0.083 0.255-0.246 0.255-0.424v-2.203c0.001 0.183 1.725 0.204 1.822 0.204 0.613 0 1.224-0.068 1.822-0.204v2.204c0 0.178 0.098 0.34 0.255 0.424 0.060 0.032 1.498 0.781 3.967 0.781 1.023 0 1.957 0.315 2.631 0.888 0.504 0.428 0.829 0.972 0.943 1.564l-19.235-0.001z">
            </path>
        </symbol>
        <symbol id="icon-linkedin" viewBox="0 0 32 32">
            <path
                d="M8.56 30.933h-6.2v-19.933h6.2v19.933zM5.427 8.333c-1.933 0-3.533-1.667-3.533-3.667 0-1.933 1.6-3.533 3.533-3.533 2 0 3.6 1.6 3.6 3.533 0 2-1.6 3.667-3.6 3.667zM31.694 30.933h-6.133v-9.667c0-2.333-0.067-5.267-3.267-5.267s-3.667 2.467-3.667 5.067v9.867h-6.2v-19.933h5.933v2.733h0.067c0.867-1.533 2.867-3.2 5.867-3.2 6.267 0 7.467 4.133 7.467 9.467v10.933h-0.067z">
            </path>
        </symbol>
        <symbol id="icon-logo" viewBox="0 0 170 32">
            <path
                d="M40.846 8.601c0.431 0.017 0.996 0.033 1.692 0.050s1.394 0.025 2.091 0.025c0.796 0 1.568-0.008 2.315-0.025s1.278-0.025 1.593-0.025c2.057 0 3.592 0.365 4.604 1.095 1.029 0.73 1.543 1.668 1.543 2.812 0 0.581-0.174 1.17-0.523 1.767s-0.888 1.128-1.618 1.593c-0.73 0.465-1.676 0.805-2.837 1.020v0.050c1.56 0.116 2.796 0.398 3.708 0.846s1.568 0.987 1.966 1.618c0.398 0.631 0.597 1.286 0.597 1.966 0 1.045-0.274 1.925-0.821 2.638s-1.336 1.261-2.364 1.643c-1.029 0.365-2.257 0.548-3.684 0.548-0.398 0-0.971-0.008-1.717-0.025-0.747-0.033-1.651-0.050-2.713-0.050-0.73 0-1.444 0.008-2.14 0.025-0.697 0-1.261 0.017-1.692 0.050v-0.498c0.531-0.033 0.929-0.1 1.195-0.199s0.44-0.299 0.523-0.597c0.1-0.299 0.149-0.747 0.149-1.344v-12.345c0-0.614-0.050-1.062-0.149-1.344-0.083-0.299-0.266-0.498-0.548-0.597-0.266-0.116-0.655-0.182-1.17-0.199v-0.498zM48.213 9.099c-0.647 0-1.070 0.141-1.269 0.423-0.182 0.282-0.274 0.854-0.274 1.717v12.345c0 0.581 0.041 1.020 0.124 1.319 0.1 0.299 0.266 0.498 0.498 0.597 0.249 0.1 0.614 0.149 1.095 0.149 1.195 0 2.066-0.373 2.613-1.12 0.564-0.763 0.846-1.842 0.846-3.236 0-1.278-0.324-2.265-0.971-2.962-0.63-0.697-1.684-1.045-3.161-1.045h-2.116c0 0 0-0.066 0-0.199 0-0.149 0-0.224 0-0.224h2.14c0.78 0 1.377-0.183 1.792-0.548 0.415-0.382 0.705-0.879 0.871-1.493 0.166-0.63 0.249-1.303 0.249-2.016 0-1.228-0.191-2.149-0.572-2.763-0.382-0.63-1.004-0.946-1.867-0.946zM63.741 13.006c1.46 0 2.605 0.431 3.435 1.294s1.244 2.273 1.244 4.231h-8.188l-0.050-0.473h5.102c0.017-0.813-0.033-1.56-0.149-2.24-0.116-0.697-0.299-1.253-0.548-1.668s-0.581-0.622-0.996-0.622c-0.581 0-1.078 0.365-1.493 1.095-0.398 0.73-0.639 1.941-0.722 3.634l0.075 0.149c-0.017 0.199-0.033 0.407-0.050 0.622 0 0.216 0 0.44 0 0.672 0 1.145 0.158 2.074 0.473 2.788 0.332 0.713 0.747 1.236 1.244 1.568 0.498 0.315 1.004 0.473 1.518 0.473 0.348 0 0.705-0.050 1.070-0.149 0.382-0.116 0.763-0.315 1.145-0.597 0.382-0.299 0.738-0.713 1.070-1.244l0.448 0.149c-0.199 0.631-0.514 1.244-0.946 1.842s-0.979 1.087-1.643 1.468c-0.664 0.382-1.46 0.572-2.389 0.572-1.128 0-2.124-0.241-2.987-0.722s-1.543-1.211-2.041-2.19c-0.481-0.979-0.722-2.223-0.722-3.733 0-1.543 0.257-2.829 0.772-3.858 0.531-1.029 1.253-1.792 2.165-2.29 0.929-0.514 1.983-0.772 3.161-0.772zM73.296 26.396c-0.747 0-1.369-0.141-1.867-0.423s-0.863-0.655-1.095-1.12c-0.232-0.481-0.348-1.004-0.348-1.568 0-0.713 0.158-1.294 0.473-1.742 0.332-0.448 0.755-0.813 1.269-1.095s1.054-0.514 1.618-0.697c0.581-0.183 1.128-0.357 1.643-0.523 0.531-0.183 0.954-0.39 1.269-0.622 0.332-0.249 0.498-0.564 0.498-0.946v-1.941c0-0.431-0.075-0.813-0.224-1.145-0.133-0.348-0.348-0.614-0.647-0.796-0.282-0.182-0.655-0.274-1.12-0.274-0.332 0-0.664 0.050-0.996 0.149-0.332 0.083-0.606 0.232-0.821 0.448 0.465 0.166 0.821 0.423 1.070 0.772 0.265 0.332 0.398 0.713 0.398 1.145 0 0.564-0.199 1.012-0.597 1.344-0.382 0.332-0.838 0.498-1.369 0.498-0.597 0-1.054-0.183-1.369-0.548-0.299-0.382-0.448-0.838-0.448-1.369 0-0.481 0.116-0.879 0.348-1.195 0.249-0.315 0.589-0.614 1.020-0.896 0.465-0.265 1.020-0.473 1.668-0.622 0.664-0.149 1.377-0.224 2.14-0.224s1.452 0.083 2.066 0.249c0.614 0.149 1.128 0.431 1.543 0.846 0.382 0.382 0.63 0.854 0.747 1.419 0.116 0.548 0.174 1.244 0.174 2.091v6.77c0 0.415 0.041 0.705 0.124 0.871 0.083 0.149 0.224 0.224 0.423 0.224 0.149 0 0.29-0.041 0.423-0.124 0.149-0.083 0.307-0.183 0.473-0.299l0.249 0.423c-0.348 0.299-0.755 0.531-1.22 0.697-0.448 0.149-0.954 0.224-1.518 0.224-0.614 0-1.103-0.083-1.468-0.249-0.365-0.183-0.631-0.423-0.796-0.722-0.149-0.299-0.224-0.647-0.224-1.045-0.398 0.631-0.879 1.128-1.444 1.493-0.564 0.348-1.253 0.523-2.066 0.523zM75.063 24.804c0.332 0 0.63-0.075 0.896-0.224 0.282-0.166 0.548-0.431 0.796-0.796v-5.102c-0.149 0.249-0.357 0.473-0.622 0.672s-0.548 0.407-0.846 0.622c-0.299 0.199-0.589 0.423-0.871 0.672-0.266 0.249-0.481 0.556-0.647 0.921s-0.249 0.805-0.249 1.319c0 0.647 0.141 1.128 0.423 1.444s0.655 0.473 1.12 0.473zM95.138 13.081v10.428c0 0.747 0.116 1.302 0.348 1.668 0.232 0.348 0.647 0.523 1.244 0.523v0.523c-0.515-0.050-1.028-0.075-1.543-0.075-0.697 0-1.344 0.025-1.941 0.075s-1.162 0.141-1.692 0.274v-2.24c-0.398 0.83-0.954 1.427-1.668 1.792-0.697 0.348-1.477 0.523-2.339 0.523-0.697 0-1.261-0.091-1.692-0.274s-0.772-0.415-1.020-0.697c-0.282-0.315-0.481-0.73-0.597-1.244s-0.174-1.178-0.174-1.991v-6.297c0-0.747-0.116-1.294-0.348-1.643-0.216-0.365-0.631-0.548-1.244-0.548v-0.523c0.531 0.050 1.045 0.075 1.543 0.075 0.697 0 1.344-0.025 1.941-0.075 0.614-0.066 1.178-0.158 1.692-0.274v10.304c0 0.415 0.033 0.78 0.1 1.095 0.083 0.315 0.232 0.564 0.448 0.747 0.216 0.166 0.531 0.249 0.946 0.249 0.448 0 0.846-0.124 1.195-0.373 0.365-0.249 0.655-0.589 0.871-1.020 0.232-0.448 0.348-0.946 0.348-1.493v-6.521c0-0.747-0.116-1.294-0.348-1.643-0.216-0.365-0.63-0.548-1.244-0.548v-0.523c0.531 0.050 1.045 0.075 1.543 0.075 0.697 0 1.344-0.025 1.941-0.075 0.614-0.066 1.178-0.158 1.692-0.274zM102.89 9.273v4.082h2.937v0.498h-2.937v10.055c0 0.498 0.091 0.855 0.274 1.070 0.182 0.199 0.456 0.299 0.821 0.299 0.299 0 0.597-0.108 0.896-0.324 0.299-0.232 0.564-0.622 0.796-1.17l0.423 0.224c-0.266 0.747-0.672 1.361-1.22 1.842-0.532 0.481-1.261 0.722-2.19 0.722-0.548 0-1.029-0.075-1.444-0.224-0.415-0.133-0.764-0.34-1.045-0.622-0.365-0.365-0.606-0.813-0.722-1.344-0.116-0.548-0.174-1.253-0.174-2.116v-8.412h-2.091v-0.498h2.091v-3.285c0.697 0 1.335-0.058 1.916-0.174 0.597-0.133 1.153-0.34 1.668-0.622zM118.757 13.355v0.498c-0.315 0.083-0.613 0.282-0.896 0.597-0.282 0.299-0.556 0.813-0.821 1.543l-3.509 9.856-0.921 1.742-5.426-12.32c-0.282-0.647-0.564-1.037-0.846-1.17-0.265-0.149-0.498-0.224-0.697-0.224v-0.523c0.548 0.050 1.112 0.091 1.692 0.124 0.597 0.017 1.17 0.025 1.717 0.025 0.681 0 1.303-0.017 1.867-0.050s1.095-0.066 1.593-0.1v0.523c-0.332 0-0.647 0.025-0.946 0.075-0.282 0.033-0.481 0.149-0.597 0.348-0.1 0.182-0.050 0.506 0.149 0.971l3.136 7.566-0.224 0.149 1.842-5.152c0.316-0.896 0.448-1.626 0.398-2.19-0.050-0.581-0.232-1.012-0.548-1.294-0.315-0.299-0.747-0.465-1.294-0.498v-0.498c0.266 0.017 0.54 0.033 0.821 0.050 0.283 0 0.564 0.008 0.846 0.025 0.283 0 0.532 0 0.747 0 0.332 0 0.681-0.008 1.045-0.025s0.656-0.033 0.871-0.050zM113.531 25.849l-0.946 2.663c-0.165 0.415-0.34 0.763-0.523 1.045-0.165 0.299-0.356 0.539-0.572 0.722-0.232 0.199-0.531 0.348-0.896 0.448-0.364 0.116-0.788 0.174-1.269 0.174-0.398 0-0.812-0.066-1.244-0.199-0.414-0.133-0.763-0.348-1.045-0.647s-0.423-0.68-0.423-1.145c0-0.514 0.183-0.929 0.548-1.244 0.365-0.299 0.846-0.448 1.444-0.448 0.548 0 0.996 0.133 1.344 0.398s0.523 0.655 0.523 1.17c0 0.332-0.108 0.647-0.324 0.946-0.199 0.299-0.506 0.523-0.921 0.672 0.084 0.017 0.183 0.025 0.299 0.025s0.208 0 0.274 0c0.498 0 0.938-0.158 1.319-0.473s0.697-0.813 0.946-1.493l0.871-2.564 0.597-0.050zM128.752 13.006c0.697 0 1.26 0.091 1.692 0.274 0.448 0.166 0.796 0.398 1.045 0.697 0.265 0.315 0.456 0.722 0.572 1.22 0.132 0.498 0.199 1.17 0.199 2.016v6.695c0 0.697 0.116 1.17 0.348 1.419 0.249 0.249 0.663 0.373 1.244 0.373v0.523c-0.316-0.017-0.788-0.033-1.419-0.050-0.631-0.033-1.253-0.050-1.867-0.050-0.631 0-1.253 0.017-1.867 0.050-0.597 0.017-1.054 0.033-1.369 0.050v-0.523c0.498 0 0.846-0.124 1.045-0.373s0.299-0.722 0.299-1.419v-7.74c0-0.415-0.042-0.772-0.124-1.070-0.084-0.315-0.233-0.556-0.448-0.722-0.216-0.182-0.54-0.274-0.971-0.274-0.448 0-0.863 0.124-1.244 0.373-0.365 0.249-0.664 0.597-0.896 1.045-0.216 0.431-0.324 0.921-0.324 1.468v6.919c0 0.697 0.1 1.17 0.299 1.419 0.215 0.249 0.564 0.373 1.045 0.373v0.523c-0.299-0.017-0.739-0.033-1.319-0.050-0.564-0.033-1.154-0.050-1.767-0.050-0.631 0-1.278 0.017-1.941 0.050-0.664 0.017-1.162 0.033-1.493 0.050v-0.523c0.58 0 0.987-0.124 1.22-0.373 0.249-0.249 0.373-0.722 0.373-1.419v-7.84c0-0.747-0.116-1.294-0.348-1.643-0.216-0.365-0.631-0.548-1.244-0.548v-0.523c0.531 0.050 1.045 0.075 1.543 0.075 0.697 0 1.344-0.025 1.941-0.075 0.613-0.066 1.178-0.158 1.692-0.274v2.24c0.414-0.846 0.979-1.444 1.692-1.792s1.509-0.523 2.389-0.523zM141.203 13.006c1.46 0 2.605 0.431 3.435 1.294s1.244 2.273 1.244 4.231h-8.188l-0.050-0.473h5.102c0.017-0.813-0.033-1.56-0.149-2.24-0.116-0.697-0.299-1.253-0.548-1.668s-0.58-0.622-0.996-0.622c-0.58 0-1.078 0.365-1.493 1.095-0.398 0.73-0.639 1.941-0.722 3.634l0.075 0.149c-0.017 0.199-0.033 0.407-0.050 0.622 0 0.216 0 0.44 0 0.672 0 1.145 0.157 2.074 0.473 2.788 0.332 0.713 0.747 1.236 1.244 1.568 0.498 0.315 1.004 0.473 1.518 0.473 0.348 0 0.705-0.050 1.070-0.149 0.381-0.116 0.764-0.315 1.145-0.597 0.381-0.299 0.739-0.713 1.070-1.244l0.448 0.149c-0.199 0.631-0.515 1.244-0.946 1.842s-0.979 1.087-1.643 1.468c-0.664 0.382-1.46 0.572-2.389 0.572-1.128 0-2.124-0.241-2.987-0.722s-1.543-1.211-2.041-2.19c-0.481-0.979-0.722-2.223-0.722-3.733 0-1.543 0.257-2.829 0.772-3.858 0.531-1.029 1.252-1.792 2.165-2.29 0.929-0.514 1.983-0.772 3.161-0.772zM152.251 13.006c0.697 0 1.303 0.091 1.817 0.274 0.532 0.166 0.913 0.332 1.145 0.498 0.564 0.382 0.913 0.133 1.045-0.747h0.523c-0.033 0.465-0.058 1.037-0.075 1.717-0.016 0.664-0.025 1.551-0.025 2.663h-0.523c-0.083-0.614-0.24-1.22-0.473-1.817s-0.572-1.087-1.020-1.468c-0.431-0.382-0.996-0.572-1.692-0.572-0.481 0-0.887 0.141-1.22 0.423-0.332 0.265-0.498 0.655-0.498 1.17 0 0.498 0.149 0.937 0.448 1.319 0.299 0.365 0.681 0.722 1.145 1.070 0.482 0.332 0.98 0.689 1.493 1.070 0.548 0.415 1.045 0.83 1.493 1.244 0.448 0.398 0.805 0.838 1.070 1.319s0.398 1.054 0.398 1.717c0 0.747-0.215 1.402-0.647 1.966-0.431 0.548-1.004 0.971-1.717 1.269-0.697 0.299-1.476 0.448-2.34 0.448-0.498 0-0.946-0.050-1.344-0.149-0.381-0.1-0.713-0.224-0.996-0.373-0.215-0.1-0.423-0.191-0.622-0.274-0.182-0.1-0.356-0.183-0.523-0.249-0.165-0.050-0.315 0.008-0.448 0.174-0.116 0.166-0.207 0.398-0.274 0.697h-0.523c0.034-0.531 0.059-1.178 0.075-1.941s0.025-1.775 0.025-3.036h0.523c0.1 0.896 0.283 1.692 0.548 2.389 0.266 0.68 0.622 1.22 1.070 1.618 0.465 0.382 1.045 0.572 1.742 0.572 0.283 0 0.556-0.058 0.821-0.174s0.482-0.307 0.647-0.572c0.183-0.265 0.274-0.606 0.274-1.020 0-0.73-0.24-1.336-0.722-1.817-0.464-0.481-1.061-1.004-1.792-1.568-0.531-0.431-1.036-0.855-1.518-1.269-0.464-0.431-0.846-0.896-1.145-1.394-0.299-0.514-0.448-1.095-0.448-1.742 0-0.747 0.199-1.377 0.597-1.892s0.921-0.896 1.568-1.145c0.664-0.265 1.369-0.398 2.116-0.398zM163.748 13.006c0.697 0 1.302 0.091 1.817 0.274 0.531 0.166 0.913 0.332 1.145 0.498 0.564 0.382 0.913 0.133 1.045-0.747h0.523c-0.033 0.465-0.058 1.037-0.075 1.717-0.017 0.664-0.025 1.551-0.025 2.663h-0.523c-0.083-0.614-0.241-1.22-0.473-1.817s-0.572-1.087-1.020-1.468c-0.431-0.382-0.996-0.572-1.692-0.572-0.481 0-0.888 0.141-1.22 0.423-0.332 0.265-0.498 0.655-0.498 1.17 0 0.498 0.149 0.937 0.448 1.319 0.299 0.365 0.68 0.722 1.145 1.070 0.481 0.332 0.979 0.689 1.493 1.070 0.548 0.415 1.045 0.83 1.493 1.244 0.448 0.398 0.804 0.838 1.070 1.319s0.398 1.054 0.398 1.717c0 0.747-0.216 1.402-0.647 1.966-0.431 0.548-1.004 0.971-1.717 1.269-0.697 0.299-1.476 0.448-2.34 0.448-0.498 0-0.946-0.050-1.344-0.149-0.381-0.1-0.714-0.224-0.996-0.373-0.216-0.1-0.423-0.191-0.622-0.274-0.182-0.1-0.356-0.183-0.523-0.249-0.166-0.050-0.316 0.008-0.448 0.174-0.116 0.166-0.207 0.398-0.274 0.697h-0.523c0.033-0.531 0.058-1.178 0.075-1.941s0.025-1.775 0.025-3.036h0.523c0.1 0.896 0.282 1.692 0.548 2.389 0.266 0.68 0.622 1.22 1.070 1.618 0.465 0.382 1.045 0.572 1.742 0.572 0.282 0 0.556-0.058 0.821-0.174s0.481-0.307 0.647-0.572c0.182-0.265 0.274-0.606 0.274-1.020 0-0.73-0.241-1.336-0.722-1.817-0.465-0.481-1.062-1.004-1.792-1.568-0.531-0.431-1.037-0.855-1.518-1.269-0.465-0.431-0.846-0.896-1.145-1.394-0.299-0.514-0.448-1.095-0.448-1.742 0-0.747 0.199-1.377 0.597-1.892s0.921-0.896 1.568-1.145c0.664-0.265 1.369-0.398 2.116-0.398z">
            </path>
            <path fill="none" stroke="#7a9ca5" style="stroke: var(--color1, #7a9ca5)" stroke-linejoin="miter"
                stroke-linecap="butt" stroke-miterlimit="4" stroke-width="2.2222"
                d="M28.222 16.889c0 7.487-6.069 13.556-13.556 13.556s-13.556-6.069-13.556-13.556c0-7.487 6.069-13.556 13.556-13.556s13.556 6.069 13.556 13.556z">
            </path>
            <path fill="none" stroke="#7a9ca5" style="stroke: var(--color1, #7a9ca5)" stroke-linejoin="round"
                stroke-linecap="round" stroke-miterlimit="4" stroke-width="2.2222"
                d="M22.014 13.053c0.112 1.16-0.308 2.322-1.167 3.233l-5.139 5.464-7.079 0.681-0.596-6.191 5.148-5.457c0.859-0.91 2.086-1.493 3.412-1.621l4.638 0.111 0.783 3.78z">
            </path>
            <path fill="none" stroke="#7a9ca5" style="stroke: var(--color1, #7a9ca5)" stroke-linejoin="round"
                stroke-linecap="round" stroke-miterlimit="4" stroke-width="2.2222" d="M17.778 12.889l-13.333 13.333">
            </path>
            <path fill="none" stroke="#7a9ca5" style="stroke: var(--color1, #7a9ca5)" stroke-linejoin="round"
                stroke-linecap="round" stroke-miterlimit="4" stroke-width="2.2222" d="M18.667 18.222h-6.222"></path>
            <path fill="none" stroke="#7a9ca5" style="stroke: var(--color1, #7a9ca5)" stroke-linejoin="round"
                stroke-linecap="round" stroke-miterlimit="4" stroke-width="2.2222" d="M17.778 12.889h-6.222"></path>
        </symbol>
        <symbol id="icon-icon" viewBox="0 0 32 32">
            <path fill="none" stroke="#7a9ca5" style="stroke: var(--color1, #7a9ca5)" stroke-linejoin="round"
                stroke-linecap="round" stroke-miterlimit="4" stroke-width="2.2222" d="M17.778 12.889h-6.222"></path>
        </symbol>
        <symbol id="icon-calendar" viewBox="0 0 30 32">
            <path fill="none" stroke="#fff" style="stroke: var(--color2, #fff)" stroke-linejoin="round"
                stroke-linecap="round" stroke-miterlimit="4" stroke-width="3.5556"
                d="M24.69 5.333h-18.667c-1.473 0-2.667 1.194-2.667 2.667v0 18.667c0 1.473 1.194 2.667 2.667 2.667v0h18.667c1.473 0 2.667-1.194 2.667-2.667v0-18.667c0-1.473-1.194-2.667-2.667-2.667v0zM20.69 2.667v5.333M10.023 2.667v5.333M3.356 13.333h24">
            </path>
        </symbol>
        <symbol id="icon-twitter" viewBox="0 0 42 32">
            <path
                d="M37.492 8v1.078c0 10.688-8.074 22.922-22.919 22.922-4.615 0-8.847-1.307-12.384-3.616 0.615 0.076 1.231 0.155 1.92 0.155 3.79-0.005 7.275-1.307 10.036-3.487l-0.034 0.026c-3.524-0.058-6.491-2.375-7.521-5.563l-0.016-0.057c0.539 0.079 0.999 0.155 1.538 0.155 0.692 0 1.462-0.155 2.078-0.308-3.714-0.782-6.462-4.031-6.462-7.921 0-0.001 0-0.002 0-0.003v0-0.076c1.076 0.615 2.383 0.923 3.692 0.999-2.19-1.439-3.616-3.884-3.616-6.663 0-0.011 0-0.021 0-0.032v0.002c0-1.538 0.384-2.922 1.076-4.076 4.044 4.867 9.961 8.058 16.629 8.46l0.065 0.003c-0.155-0.615-0.231-1.231-0.231-1.846 0-0.001 0-0.003 0-0.005 0-4.459 3.615-8.074 8.074-8.074v0c2.309 0 4.384 0.923 5.922 2.54 1.92-0.425 3.618-1.115 5.158-2.042l-0.077 0.043c-0.606 1.909-1.862 3.465-3.503 4.443l-0.036 0.020c1.706-0.179 3.269-0.615 4.71-1.269l-0.095 0.039c-1.111 1.618-2.436 2.992-3.954 4.12l-0.046 0.033z">
            </path>
        </symbol>
        <symbol id="icon-facebook" viewBox="0 0 19 32">
            <path
                d="M16.2 17.882h-4.41v13.176h-5.882v-13.176h-4.824v-5.412h4.824v-4.177c0-4.706 2.824-7.352 7.117-7.352 2.059 0 4.235 0.412 4.235 0.412v4.648h-2.411c-2.353 0-3.059 1.412-3.059 2.94v3.529h5.235l-0.824 5.412z">
            </path>
        </symbol>
        <symbol id="icon-phone" viewBox="0 0 32 32">
            <path fill="none" stroke="#7a9ca5" style="stroke: var(--color1, #7a9ca5)" stroke-linejoin="round"
                stroke-linecap="round" stroke-miterlimit="4" stroke-width="2.7826"
                d="M19.392 6.957c2.782 0.557 4.939 2.714 5.488 5.451l0.007 0.044-5.496-5.496zM19.392 1.391c5.817 0.665 10.389 5.232 11.055 10.989l0.005 0.058-11.061-11.047zM29.062 23.541v4.174c0 0.003 0 0.007 0 0.011 0 1.537-1.246 2.783-2.783 2.783-0.088 0-0.175-0.004-0.261-0.012l0.011 0.001c-4.515-0.503-8.594-2.027-12.111-4.336l0.104 0.064c-3.383-2.172-6.176-4.965-8.283-8.24l-0.065-0.108c-2.252-3.429-3.777-7.528-4.26-11.94l-0.011-0.123c-0.007-0.075-0.011-0.162-0.011-0.25 0-1.536 1.244-2.781 2.78-2.783h4.174c0.008-0 0.018-0 0.027-0 1.399 0 2.558 1.033 2.753 2.378l0.002 0.015c0.177 1.336 0.504 2.648 0.974 3.91 0.113 0.291 0.178 0.627 0.178 0.979 0 0.763-0.307 1.454-0.804 1.957l-1.767 1.767c2.016 3.502 4.846 6.331 8.24 8.291l0.108 0.057 1.767-1.767c0.502-0.497 1.194-0.804 1.957-0.804 0.352 0 0.688 0.065 0.998 0.184l-0.019-0.006c1.262 0.472 2.574 0.797 3.91 0.974 1.36 0.197 2.394 1.356 2.394 2.755 0 0.024-0 0.048-0.001 0.073l0-0.004z">
            </path>
        </symbol>
    </defs>
</svg>